name Walk4.mot
datacolumns 19
datarows 30
range 2.37500000 2.40400000
endheader

                time	   L_ground_force_vx	   L_ground_force_vy	   L_ground_force_vz	   L_ground_force_px	   L_ground_force_py	   L_ground_force_pz	   R_ground_force_vx	   R_ground_force_vy	   R_ground_force_vz	   R_ground_force_px	   R_ground_force_py	   R_ground_force_pz	   L_ground_torque_x	   L_ground_torque_y	   L_ground_torque_z	   R_ground_torque_x	   R_ground_torque_y	   R_ground_torque_z	
          2.37500000	          6.18339088	         18.47091490	         -1.00118102	          0.30003168	          0.00000000	          0.13148334	          0.00000000	          0.00000000	          0.00000000	         -0.00000000	          0.00000000	          0.00000000	          0.00000000	          0.02568766	          0.00000000	          0.00000000	         -0.00000000	          0.00000000	
          2.37600000	          5.07750431	         15.86455373	         -0.96853396	          0.28715800	          0.00000000	          0.12609460	          0.00000000	          0.00000000	          0.00000000	         -0.00000000	          0.00000000	          0.00000000	          0.00000000	          0.02514100	          0.00000000	          0.00000000	         -0.00000000	          0.00000000	
          2.37700000	          4.04640848	         13.41991388	         -0.93499680	          0.27429694	          0.00000000	          0.12068915	          0.00000000	          0.00000000	          0.00000000	         -0.00000000	          0.00000000	          0.00000000	          0.00000000	          0.02454607	          0.00000000	          0.00000000	         -0.00000000	          0.00000000	
          2.37800000	          3.08768338	         11.13242583	         -0.90077713	          0.26149334	          0.00000000	          0.11528746	          0.00000000	          0.00000000	          0.00000000	         -0.00000000	          0.00000000	          0.00000000	          0.00000000	          0.02390900	          0.00000000	          0.00000000	         -0.00000000	          0.00000000	
          2.37900000	          2.19880544	          8.99736269	         -0.86606313	          0.24879023	          0.00000000	          0.10990941	          0.00000000	          0.00000000	          0.00000000	         -0.00000000	          0.00000000	          0.00000000	          0.00000000	          0.02323574	          0.00000000	          0.00000000	         -0.00000000	          0.00000000	
          2.38000000	          1.37719483	          7.00983258	         -0.83102801	          0.23622707	          0.00000000	          0.10457330	          0.00000000	          0.00000000	          0.00000000	         -0.00000000	          0.00000000	          0.00000000	          0.00000000	          0.02253193	          0.00000000	          0.00000000	          0.00000000	          0.00000000	
          2.38100000	          0.62023688	          5.16480202	         -0.79583146	          0.22383944	          0.00000000	          0.09929573	          0.00000000	          0.00000000	          0.00000000	         -0.00000000	          0.00000000	          0.00000000	          0.00000000	          0.02180282	          0.00000000	          0.00000000	          0.00000000	          0.00000000	
          2.38200000	         -0.07470509	          3.45712707	         -0.76062021	          0.21165922	          0.00000000	          0.09409166	          0.00000000	          0.00000000	          0.00000000	         -0.00000000	          0.00000000	          0.00000000	          0.00000000	          0.02105331	          0.00000000	          0.00000000	          0.00000000	          0.00000000	
          2.38300000	         -0.71027790	          1.88158207	         -0.72552855	          0.19971480	          0.00000000	          0.08897451	          0.00000000	          0.00000000	          0.00000000	         -0.00000000	          0.00000000	          0.00000000	          0.00000000	          0.02028797	          0.00000000	          0.00000000	          0.00000000	          0.00000000	
          2.38400000	         -1.28912769	          0.43288641	         -0.69067893	          0.18803127	          0.00000000	          0.08395624	          0.00000000	          0.00000000	          0.00000000	         -0.00000000	          0.00000000	          0.00000000	          0.00000000	          0.01951104	          0.00000000	          0.00000000	          0.00000000	          0.00000000	
          2.38500000	         -1.81388994	         -0.89427089	         -0.65618246	          0.17663060	          0.00000000	          0.07904738	          0.00000000	          0.00000000	          0.00000000	         -0.00000000	          0.00000000	          0.00000000	          0.00000000	          0.01872644	          0.00000000	          0.00000000	          0.00000000	          0.00000000	
          2.38600000	         -2.28718045	         -2.10520851	         -0.62213946	          0.16553181	          0.00000000	          0.07425720	          0.00000000	          0.00000000	          0.00000000	         -0.00000000	          0.00000000	          0.00000000	          0.00000000	          0.01793779	          0.00000000	          0.00000000	          0.00000000	          0.00000000	
          2.38700000	         -2.71158711	         -3.20523207	         -0.58864002	          0.15475118	          0.00000000	          0.06959369	          0.00000000	          0.00000000	          0.00000000	         -0.00000000	          0.00000000	          0.00000000	          0.00000000	          0.01714841	          0.00000000	          0.00000000	          0.00000000	          0.00000000	
          2.38800000	         -3.08966250	         -4.19961522	         -0.55576450	          0.14430239	          0.00000000	          0.06506372	          0.00000000	          0.00000000	          0.00000000	         -0.00000000	          0.00000000	          0.00000000	          0.00000000	          0.01636135	          0.00000000	          0.00000000	          0.00000000	          0.00000000	
          2.38900000	         -3.42391722	         -5.09358240	         -0.52358409	          0.13419672	          0.00000000	          0.06067305	          0.00000000	          0.00000000	          0.00000000	         -0.00000000	          0.00000000	          0.00000000	          0.00000000	          0.01557938	          0.00000000	          0.00000000	          0.00000000	          0.00000000	
          2.39000000	         -3.71681402	         -5.89229331	         -0.49216130	          0.12444318	          0.00000000	          0.05642641	          0.00000000	          0.00000000	          0.00000000	         -0.00000000	          0.00000000	          0.00000000	          0.00000000	          0.01480502	          0.00000000	          0.00000000	          0.00000000	          0.00000000	
          2.39100000	         -3.97076255	         -6.60082889	         -0.46155043	          0.11504869	          0.00000000	          0.05232763	          0.00000000	          0.00000000	          0.00000000	         -0.00000000	          0.00000000	          0.00000000	          0.00000000	          0.01404056	          0.00000000	          0.00000000	          0.00000000	          0.00000000	
          2.39200000	         -4.18811472	         -7.22417882	         -0.43179814	          0.10601821	          0.00000000	          0.04837960	          0.00000000	          0.00000000	          0.00000000	         -0.00000000	          0.00000000	          0.00000000	          0.00000000	          0.01328804	          0.00000000	          0.00000000	          0.00000000	          0.00000000	
          2.39300000	         -4.37116080	         -7.76723045	         -0.40294385	          0.09735492	          0.00000000	          0.04458444	          0.00000000	          0.00000000	          0.00000000	         -0.00000000	          0.00000000	          0.00000000	          0.00000000	          0.01254929	          0.00000000	          0.00000000	          0.00000000	          0.00000000	
          2.39400000	         -4.52212594	         -8.23475901	         -0.37502024	          0.08906034	          0.00000000	          0.04094348	          0.00000000	          0.00000000	          0.00000000	         -0.00000000	          0.00000000	          0.00000000	          0.00000000	          0.01182593	          0.00000000	          0.00000000	          0.00000000	          0.00000000	
          2.39500000	         -4.64316733	         -8.63141911	         -0.34805370	          0.08113446	          0.00000000	          0.03745738	          0.00000000	          0.00000000	          0.00000000	         -0.00000000	          0.00000000	          0.00000000	          0.00000000	          0.01111939	          0.00000000	          0.00000000	          0.00000000	          0.00000000	
          2.39600000	         -4.73637182	         -8.96173739	         -0.32206475	          0.07357588	          0.00000000	          0.03412614	          0.00000000	          0.00000000	          0.00000000	         -0.00000000	          0.00000000	          0.00000000	          0.00000000	          0.01043090	          0.00000000	          0.00000000	          0.00000000	          0.00000000	
          2.39700000	         -4.80375404	         -9.23010632	         -0.29706848	          0.06638194	          0.00000000	          0.03094917	          0.00000000	          0.00000000	          0.00000000	         -0.00000000	          0.00000000	          0.00000000	          0.00000000	          0.00976154	          0.00000000	          0.00000000	          0.00000000	          0.00000000	
          2.39800000	         -4.84725487	         -9.44077897	         -0.27307494	          0.05954881	          0.00000000	          0.02792538	          0.00000000	          0.00000000	          0.00000000	         -0.00000000	          0.00000000	          0.00000000	          0.00000000	          0.00911220	          0.00000000	          0.00000000	          0.00000000	          0.00000000	
          2.39900000	         -4.86874043	         -9.59786485	         -0.25008955	          0.05307165	          0.00000000	          0.02505316	          0.00000000	          0.00000000	          0.00000000	         -0.00000000	          0.00000000	          0.00000000	          0.00000000	          0.00848364	          0.00000000	          0.00000000	          0.00000000	          0.00000000	
          2.40000000	         -4.87000136	         -9.70532654	         -0.22811344	          0.04694465	          0.00000000	          0.02233048	          0.00000000	          0.00000000	          0.00000000	         -0.00000000	          0.00000000	          0.00000000	          0.00000000	          0.00787646	          0.00000000	          0.00000000	          0.00000000	          0.00000000	
          2.40100000	         -4.85275248	         -9.76697722	         -0.20714385	          0.04116121	          0.00000000	          0.01975491	          0.00000000	          0.00000000	          0.00000000	         -0.00000000	          0.00000000	          0.00000000	          0.00000000	          0.00729114	          0.00000000	          0.00000000	          0.00000000	          0.00000000	
          2.40200000	         -4.81863275	         -9.78647896	         -0.18717443	          0.03571396	          0.00000000	          0.01732367	          0.00000000	          0.00000000	          0.00000000	         -0.00000000	          0.00000000	          0.00000000	          0.00000000	          0.00672804	          0.00000000	          0.00000000	          0.00000000	          0.00000000	
          2.40300000	         -4.76920552	         -9.76734176	         -0.16819560	          0.03059490	          0.00000000	          0.01503369	          0.00000000	          0.00000000	          0.00000000	         -0.00000000	          0.00000000	          0.00000000	          0.00000000	          0.00618739	          0.00000000	          0.00000000	          0.00000000	          0.00000000	
          2.40400000	         -4.70595909	         -9.71292316	         -0.15019486	          0.02579547	          0.00000000	          0.01288160	          0.00000000	          0.00000000	          0.00000000	         -0.00000000	          0.00000000	          0.00000000	          0.00000000	          0.00566933	          0.00000000	          0.00000000	          0.00000000	          0.00000000	
